# xmcd CD database file
#
# Track frame offsets:
#	150
#	15172
#	33757
#	48919
#	67084
#	82013
#	94550
#	115218
#	137666
#	151978
#	175162
#	192697
#	200771
#	212158
#	227440
#	244751
#	271823
#
# Disc length: 3778 seconds
#
# Revision: 2
# Processed by: cddbd v1.5PL3 Copyright (c) Steve Scherf et al.
# Submitted via: CDex 1.51
#
DISCID=e20ec011
DTITLE=Louis Armstrong - Collection CD2/3
DYEAR=2000
DGENRE=Jazz
TTITLE0=St James Infirmary
TTITLE1=Someday You'll Be Sorry
TTITLE2=New Orleans Stomp
TTITLE3=Back Ole Town Blues
TTITLE4=Chimas Blues
TTITLE5=Jelly Roll Blues
TTITLE6=I Can't Believe That You're In Love With Me
TTITLE7=Do You Know What It Means To Miss New Orleans?
TTITLE8=That Rhythm Man
TTITLE9=Struttin' With Some Barbeque
TTITLE10=La Vie En Rose
TTITLE11=Stompin' at the Savoy
TTITLE12=Tiger Rag
TTITLE13=When It's Sleepy Time Down South
TTITLE14=I Love The Guy
TTITLE15=Baby, It's Cold Outside
TTITLE16=Muskrat Ramble
EXTD=YEAR: 2000
EXTT0=
EXTT1=
EXTT2=
EXTT3=
EXTT4=
EXTT5=
EXTT6=
EXTT7=
EXTT8=
EXTT9=
EXTT10=
EXTT11=
EXTT12=
EXTT13=
EXTT14=
EXTT15=
EXTT16=
PLAYORDER=
